<svg width="464" height="133" viewBox="0 0 464 133" fill="none" xmlns="http://www.w3.org/2000/svg">
<path d="M61.2014 0C63.9111 0 66.9691 0.589285 69.6521 2.14417L113.184 27.3625L113.429 27.508C115.97 29.0576 118.787 31.9958 118.787 36.3682C118.787 37.2022 118.684 37.9839 118.5 38.7138C119.126 39.1798 119.705 39.732 120.223 40.3717C122.034 42.6131 122.572 45.2669 122.572 47.4798V92.4882C122.572 95.5885 121.553 98.5333 120.198 100.883C118.844 103.233 116.807 105.59 114.127 107.14L114.126 107.141L72.2518 131.356L72.2515 131.355C69.653 132.858 65.5701 133.977 61.6631 131.72C61.5337 131.645 61.4076 131.568 61.2843 131.489C61.1621 131.567 61.0372 131.644 60.9089 131.718C57.002 133.977 52.9184 132.859 50.3191 131.356L8.44627 107.139L8.44599 107.139C5.76532 105.588 3.72846 103.232 2.37394 100.882C1.01942 98.5326 1.04995e-05 95.5873 0 92.4865V47.4792C0 45.2661 0.53734 42.6123 2.34889 40.3708C2.82667 39.7797 3.35749 39.2626 3.9291 38.8198C3.72847 38.0596 3.61545 37.2425 3.61545 36.3679C3.61548 31.8546 6.61655 28.8696 9.21801 27.3625L52.7496 2.14445C55.4319 0.590182 58.4905 4.41649e-06 61.2014 0ZM49.6921 119.302C49.7441 119.325 49.7961 119.347 49.848 119.368C49.8999 119.389 49.9516 119.41 50.0033 119.43C49.8483 119.371 49.6924 119.304 49.5357 119.23L49.6921 119.302ZM46.4504 116.937C46.4991 116.988 46.548 117.038 46.5971 117.087C46.6952 117.186 46.7941 117.283 46.8938 117.377C46.9935 117.471 47.0941 117.563 47.1952 117.653C46.9425 117.429 46.6937 117.19 46.4504 116.937ZM45.3414 115.635C45.2978 115.578 45.2545 115.52 45.2117 115.461C45.2974 115.578 45.3845 115.693 45.473 115.807L45.3414 115.635ZM53.1339 108.822C53.66 109.64 54.1092 110.508 54.4614 111.391C54.3205 111.038 54.1642 110.687 53.9936 110.341C53.9083 110.168 53.8193 109.996 53.727 109.825C53.5424 109.484 53.3443 109.149 53.1339 108.822ZM42.5013 108.405C42.5038 108.465 42.5069 108.525 42.5107 108.586C42.5031 108.465 42.4982 108.345 42.4957 108.227L42.5013 108.405ZM52.2898 107.638C52.529 107.942 52.7574 108.256 52.9739 108.579L52.8094 108.338C52.6426 108.099 52.4692 107.866 52.2898 107.638ZM50.1485 105.461C50.629 105.844 51.0978 106.282 51.5453 106.765C51.4175 106.627 51.2879 106.493 51.1568 106.362C50.9602 106.167 50.7601 105.98 50.5574 105.803C50.4222 105.684 50.2858 105.57 50.1485 105.461ZM47.6377 104.015C47.8659 104.096 48.0966 104.192 48.3293 104.303C48.1666 104.226 48.0051 104.155 47.8445 104.092C47.7754 104.065 47.7063 104.039 47.6377 104.015ZM102.295 101.32C102.385 101.328 102.476 101.332 102.567 101.334C102.429 101.332 102.294 101.323 102.161 101.306L102.295 101.32ZM8.08614 96.4373C8.13273 96.5366 8.18081 96.6354 8.2303 96.7336C8.20555 96.6845 8.18142 96.6353 8.15739 96.5859C8.10931 96.4871 8.06252 96.3878 8.0174 96.2879L8.08614 96.4373ZM29.6564 89.1305C29.6752 89.1538 29.6943 89.1767 29.7132 89.1999C29.6816 89.1611 29.6501 89.1223 29.6188 89.0831L29.6564 89.1305ZM28.6453 87.7135C28.6522 87.7243 28.6593 87.735 28.6662 87.7458C28.62 87.673 28.5741 87.5997 28.529 87.5259L28.6453 87.7135ZM73.5075 83.9516C73.3179 84.056 73.1291 84.15 72.942 84.2345C73.1813 84.1264 73.4234 84.0025 73.6667 83.8619L73.5075 83.9516ZM67.7449 82.8872C67.7649 82.9291 67.7853 82.9705 67.8064 83.0112C67.8487 83.0927 67.8934 83.1717 67.9403 83.2481C67.9872 83.3247 68.0366 83.3986 68.0881 83.47C67.9594 83.2917 67.8448 83.0972 67.7449 82.8872ZM67.3258 81.4543C67.3492 81.614 67.3782 81.7691 67.4129 81.9192C67.4244 81.9692 67.4366 82.0186 67.4493 82.0675C67.5005 82.2634 67.5617 82.4504 67.6322 82.628C67.4913 82.2729 67.3882 81.8801 67.3258 81.4543ZM67.2626 80.7915C67.2706 80.9631 67.2847 81.1303 67.3043 81.2929L67.2868 81.1288C67.2763 81.0183 67.268 80.9059 67.2626 80.7915ZM78.0839 79.3444C77.9128 79.6243 77.7333 79.8972 77.5471 80.1625C77.7751 79.8377 77.993 79.5015 78.198 79.1552L78.0839 79.3444ZM67.5278 78.2081C67.4672 78.4667 67.4165 78.7228 67.3759 78.9754C67.3623 79.0596 67.3499 79.1434 67.3386 79.2268C67.3047 79.4771 67.281 79.7236 67.2676 79.9654L67.2846 79.7221C67.3252 79.2324 67.4066 78.7252 67.5278 78.2081ZM31.6777 77.1743C31.8836 77.2471 32.0916 77.3324 32.3011 77.4299C32.0219 77.2999 31.7452 77.1917 31.4729 77.1058L31.6777 77.1743ZM28.9423 77.0138C28.9281 77.0182 28.914 77.0229 28.9 77.0275C28.9208 77.0206 28.9418 77.0141 28.9629 77.0077L28.9423 77.0138ZM73.68 69.5776C73.539 69.6589 73.3981 69.7449 73.2578 69.836C72.9773 70.0181 72.6989 70.2195 72.4243 70.4386C72.8362 70.11 73.2568 69.8213 73.68 69.5776ZM17.6172 65.7528C17.7217 65.8017 17.8258 65.8476 17.9295 65.8905C17.9814 65.9119 18.0331 65.9327 18.0848 65.9526C17.9298 65.893 17.7739 65.8261 17.6172 65.7528ZM22.74 64.7653C22.7555 64.7393 22.7712 64.7133 22.7862 64.6867L22.7901 64.6792C22.7738 64.7083 22.7569 64.7369 22.74 64.7653ZM14.8264 63.7563C14.8593 63.7884 14.8924 63.8201 14.9255 63.8516C14.8893 63.8171 14.8532 63.7823 14.8172 63.7471L14.8264 63.7563ZM13.4229 62.1579C13.3793 62.1003 13.3361 62.0423 13.2932 61.984C13.3789 62.1007 13.466 62.2159 13.5545 62.3296L13.4229 62.1579ZM10.5828 54.9277C10.5904 55.1073 10.6038 55.2897 10.6229 55.4745C10.5974 55.2281 10.5822 54.9859 10.5772 54.749L10.5828 54.9277ZM15.7189 50.5373C15.9248 50.6101 16.1328 50.6953 16.3423 50.7929C16.0631 50.6629 15.7864 50.5546 15.5141 50.4688L15.7189 50.5373ZM110.414 34.088C110.514 34.1704 110.608 34.2543 110.695 34.3397L110.605 34.2546C110.514 34.1702 110.416 34.0874 110.312 34.006L110.414 34.088Z" fill="#454545"/>
<path d="M114.003 47.8573C114.003 45.6521 112.919 44.4053 111.323 44.4481V44.4475C110.699 44.4642 109.997 44.678 109.251 45.1097L68.5036 68.6684C65.8498 70.203 63.7506 73.8436 63.7506 76.9123V120.7C63.7506 123.768 65.8498 124.98 68.5036 123.446L109.251 99.8877C111.905 98.3531 114.003 94.7131 114.003 91.6443V47.8573ZM104.419 85.4726C105.517 84.8404 106.596 84.542 107.545 84.6079C108.49 84.6736 109.274 85.0983 109.818 85.8392C110.363 86.5801 110.648 87.6114 110.646 88.8295C110.644 90.6702 109.986 92.8143 108.816 94.7905C107.646 96.7668 106.06 98.4137 104.406 99.3695C102.753 100.325 101.167 100.512 99.9969 99.8882C98.8635 99.284 98.2102 97.9673 98.1687 96.2141L98.1668 96.0433C98.1646 94.8991 98.417 93.626 98.9004 92.338L99.0003 92.0801C99.5145 90.7905 100.241 89.5362 101.113 88.4285L101.29 88.2091C102.182 87.1214 103.186 86.2236 104.213 85.5946L104.419 85.4726ZM73.3604 69.3555C74.4586 68.7232 75.5367 68.4249 76.4858 68.4908H76.4855C77.4309 68.5564 78.215 68.9809 78.7593 69.7218C79.3036 70.4627 79.5891 71.4939 79.5869 72.7121C79.5849 74.5528 78.9266 76.6969 77.7567 78.6731L77.6457 78.8573C76.4875 80.7515 74.9492 82.3261 73.3474 83.2521L73.1925 83.3394C71.5951 84.2188 70.0714 84.375 68.938 83.7708C67.7681 83.1471 67.1098 81.764 67.1079 79.9256C67.1056 78.7052 67.393 77.3382 67.9414 75.9627C68.4899 74.5872 69.2797 73.2518 70.2311 72.0917C71.1826 70.9315 72.2621 69.9877 73.3604 69.3555ZM120.936 91.6443C120.936 94.6605 119.944 97.5254 118.626 99.8115C117.308 102.098 115.327 104.39 112.718 105.899L112.717 105.899L71.9706 129.457L71.9703 129.457C69.4417 130.919 65.4688 132.008 61.667 129.811C57.8641 127.614 56.8178 123.624 56.8178 120.7V76.9123C56.8178 73.8956 57.8098 71.0305 59.1278 68.7446C60.4459 66.4586 62.4279 64.1659 65.0364 62.6574L65.037 62.6572L105.784 39.0985C107.267 38.2408 109.091 37.5631 111.138 37.5084C111.206 37.5066 111.273 37.5064 111.34 37.5065C114.089 37.4897 116.785 38.6353 118.65 40.9421C120.413 43.1227 120.936 45.7044 120.936 47.8573V91.6443Z" fill="white"/>
<path d="M58.8483 76.9112C58.8483 73.8425 56.7491 70.203 54.0953 68.6681L13.3497 45.1091C12.6038 44.6774 11.9008 44.4631 11.2766 44.4464V44.447C9.68125 44.4039 8.59667 45.651 8.59667 47.8567V91.6427C8.59667 94.7114 10.6959 98.3519 13.3497 99.8866L54.0953 123.446C56.7491 124.98 58.8483 123.767 58.8483 120.698V76.9112ZM46.115 102.562C47.0641 102.497 48.1423 102.795 49.2404 103.427C50.3386 104.059 51.418 105.003 52.3694 106.164C53.3208 107.324 54.1107 108.659 54.6591 110.035C55.2075 111.41 55.4952 112.777 55.4929 113.997C55.4939 114.91 55.3332 115.721 55.0201 116.383C54.707 117.045 54.2474 117.546 53.6679 117.856C53.0885 118.167 52.4003 118.281 51.6428 118.192C50.8853 118.104 50.0732 117.814 49.2532 117.34C48.4332 116.866 47.6213 116.217 46.8638 115.43C46.1063 114.642 45.4181 113.733 44.8386 112.752C44.2592 111.772 43.7996 110.74 43.4865 109.716C43.1734 108.692 43.0129 107.695 43.0139 106.784C43.0117 105.566 43.2967 104.534 43.841 103.793C44.3852 103.053 45.1697 102.628 46.115 102.562ZM30.5847 76.4502C31.5339 76.3843 32.612 76.6827 33.7102 77.3149C34.8084 77.9472 35.8879 78.891 36.8394 80.0511C37.7909 81.2113 38.5807 82.5466 39.1291 83.9221C39.6776 85.2977 39.9653 86.6649 39.9629 87.8853L39.9608 88.0562C39.9193 89.8093 39.2659 91.1261 38.1325 91.7303C36.9626 92.3539 35.3767 92.1674 33.7232 91.2116C32.1213 90.2856 30.583 88.7109 29.4248 86.8167L29.3138 86.6326C28.1439 84.6563 27.4859 82.5122 27.4839 80.6715C27.4817 79.4534 27.7667 78.4221 28.311 77.6813C28.8382 76.9636 29.5906 76.5429 30.4964 76.4575L30.5847 76.4502ZM30.8769 80.6677H30.8767H30.8769ZM15.0555 50.536C16.0047 50.4701 17.0828 50.7685 18.181 51.4007C19.2792 52.033 20.3587 52.9768 21.3102 54.1369C22.2617 55.2971 23.0515 56.6324 23.5999 58.0079C24.1484 59.3835 24.4361 60.7507 24.4338 61.9711C24.4347 62.8839 24.2741 63.6946 23.9609 64.3567L23.9003 64.4788C23.5896 65.0805 23.1521 65.5389 22.6088 65.8299L22.4988 65.8858C21.98 66.136 21.3798 66.2356 20.7247 66.1803L20.5836 66.1659C19.8261 66.0774 19.014 65.7879 18.194 65.3139C17.4253 64.8695 16.6636 64.2712 15.9473 63.5495L15.8046 63.4034C15.0471 62.6161 14.3589 61.7064 13.7795 60.726C13.2 59.7456 12.7404 58.7137 12.4273 57.6896C12.1142 56.6655 11.9538 55.669 11.9547 54.7573C11.9525 53.5392 12.2376 52.5079 12.7818 51.7671C13.326 51.0262 14.1102 50.6017 15.0555 50.536ZM65.7811 120.698C65.7811 123.623 64.7348 127.612 60.933 129.81C57.1313 132.007 53.1576 130.919 50.6283 129.457V129.457L9.88276 105.898L9.88249 105.898C7.27397 104.389 5.29196 102.097 3.97391 99.8107C2.65585 97.5247 1.66388 94.6594 1.66388 91.6427V47.8567C1.66388 45.7037 2.18673 43.1218 3.94953 40.9412C5.81421 38.6346 8.5101 37.4884 11.2604 37.5054C11.3273 37.5053 11.3943 37.5055 11.4613 37.5073C13.5108 37.562 15.3352 38.2414 16.8164 39.0982L16.8166 39.0979L57.5622 62.6566L57.5628 62.6571C60.1707 64.1655 62.1526 66.4575 63.4708 68.7435C64.7889 71.0293 65.7811 73.8944 65.7811 76.9112V120.698Z" fill="white"/>
<path d="M61.2176 1.66595C63.8544 1.66595 66.8301 2.23925 69.4408 3.75194L111.8 28.286L112.039 28.4275C114.512 29.935 117.253 32.7935 117.253 37.0472C117.253 41.4379 114.333 44.3417 111.801 45.8079L69.4408 70.342L69.4411 70.3422C66.8313 71.854 63.8556 72.428 61.2174 72.428C58.5791 72.4279 55.6036 71.8538 52.9939 70.3422L10.6337 45.8082C8.10229 44.342 5.18201 41.4378 5.18201 37.047C5.18203 32.6561 8.1023 29.7522 10.6337 28.286L52.9933 3.75221C55.6034 2.24012 58.5797 1.66596 61.2176 1.66595ZM61.2176 8.6075C59.505 8.6075 57.7921 8.99188 56.4654 9.76045L14.1053 34.2945C11.4514 35.8316 11.4514 38.2623 14.1053 39.7994L56.4654 64.3337C59.1193 65.8708 63.3157 65.8708 65.9693 64.3337L108.329 39.7994C110.983 38.2626 110.983 35.8316 108.329 34.2947L65.9693 9.76072C64.6424 8.99161 62.93 8.6075 61.2176 8.6075ZM61.4741 31.6133H61.4744C63.2154 31.6286 64.9103 31.9481 66.3474 32.5322C67.7844 33.1164 68.9 33.9392 69.5546 34.8978C70.2092 35.8564 70.374 36.9086 70.0282 37.9225L69.9944 38.0171C69.6296 38.9943 68.803 39.89 67.6104 40.5988C66.7901 41.0941 65.8128 41.488 64.7349 41.7577C63.6571 42.0275 62.5001 42.1679 61.3306 42.1707L61.1115 42.1696C60.0165 42.1561 58.9344 42.0221 57.9205 41.774C56.9067 41.5259 55.9797 41.1683 55.1864 40.7197L55.0296 40.6289C54.2542 40.1683 53.6298 39.6263 53.1878 39.031L53.1019 38.9111C52.6565 38.2687 52.4295 37.5802 52.4341 36.8853C52.4388 36.1905 52.675 35.5029 53.129 34.8625C53.5546 34.2622 54.1638 33.7145 54.925 33.2467L55.0794 33.1543C55.8653 32.6875 56.7914 32.313 57.8092 32.0499L58.0139 31.9986C59.0437 31.7505 60.1422 31.6196 61.252 31.6128L61.4741 31.6133ZM58.1103 35.4298L56.8982 36.2723L57.2516 36.8788L58.1103 35.4298ZM58.1103 35.4298L57.2516 36.8788L56.8982 36.2723L58.1103 35.4298Z" fill="white"/>
<path d="M111.323 44.4475C110.699 44.4642 109.997 44.678 109.251 45.1098L68.5037 68.6685C65.8499 70.2032 63.7506 73.8436 63.7506 76.9123V120.7C63.7506 123.768 65.8499 124.981 68.5037 123.446L109.251 99.8877C111.905 98.3531 114.003 94.7132 114.003 91.6445V47.8572C114.003 45.652 112.919 44.4053 111.323 44.4481V44.4475ZM76.4856 68.4908C77.431 68.5564 78.2151 68.9809 78.7594 69.7218C79.3037 70.4627 79.589 71.4939 79.5868 72.7121C79.5848 74.5528 78.9266 76.6968 77.7567 78.6731C76.5868 80.6493 75.0009 82.2963 73.3473 83.2522C71.6938 84.208 70.1079 84.3946 68.9379 83.7709C67.768 83.1472 67.1097 81.7642 67.1077 79.9258C67.1054 78.7053 67.393 77.3383 67.9415 75.9627C68.4899 74.5872 69.2798 73.2519 70.2312 72.0917C71.1827 70.9316 72.2621 69.9877 73.3603 69.3554C74.4585 68.7231 75.5367 68.4249 76.4859 68.4908H76.4856ZM107.545 84.608C108.49 84.6737 109.274 85.0983 109.819 85.8392C110.363 86.5802 110.648 87.6114 110.646 88.8296C110.644 90.6702 109.986 92.8142 108.816 94.7905C107.646 96.7668 106.06 98.4138 104.406 99.3696C102.753 100.325 101.167 100.512 99.9968 99.8883C98.8269 99.2646 98.1686 97.8816 98.1666 96.0432C98.1643 94.8228 98.4519 93.4557 99.0003 92.0801C99.5487 90.7045 100.339 89.3692 101.29 88.209C102.242 87.0488 103.321 86.1049 104.419 85.4726C105.517 84.8403 106.596 84.5421 107.545 84.608Z" fill="#009440"/>
<path d="M11.2766 44.4469C9.68125 44.4039 8.59668 45.6509 8.59668 47.8566V91.6428C8.59668 94.7115 10.6959 98.3519 13.3498 99.8866L54.0952 123.446C56.7491 124.98 58.8483 123.767 58.8483 120.698V76.9112C58.8483 73.8424 56.7491 70.2028 54.0952 68.6679L13.3498 45.1092C12.6038 44.6774 11.9008 44.463 11.2766 44.4464V44.4469ZM15.0555 50.5361C16.0047 50.4701 17.0829 50.7684 18.1811 51.4006C19.2793 52.0329 20.3587 52.9768 21.3102 54.1369C22.2616 55.2971 23.0515 56.6324 23.5999 58.008C24.1484 59.3835 24.436 60.7506 24.4337 61.971C24.4346 62.8838 24.2739 63.6945 23.9608 64.3566C23.6477 65.0187 23.1882 65.5193 22.6087 65.8298C22.0292 66.1403 21.341 66.2545 20.5835 66.166C19.826 66.0775 19.0141 65.7879 18.1941 65.3139C17.3741 64.8399 16.5621 64.1907 15.8046 63.4035C15.0471 62.6162 14.359 61.7064 13.7795 60.7259C13.2 59.7455 12.7406 58.7137 12.4274 57.6896C12.1143 56.6655 11.9537 55.6691 11.9546 54.7574C11.9524 53.5392 12.2377 52.508 12.7819 51.7672C13.3262 51.0263 14.1102 50.6017 15.0555 50.5361ZM30.5847 76.4502C31.5339 76.3843 32.612 76.6826 33.7103 77.3148C34.8085 77.9471 35.8879 78.891 36.8393 80.0511C37.7908 81.2113 38.5807 82.5466 39.1291 83.9221C39.6776 85.2977 39.9652 86.6647 39.9628 87.8852C39.9609 89.7236 39.3026 91.1066 38.1326 91.7303C36.9627 92.354 35.3768 92.1674 33.7232 91.2116C32.0697 90.2557 30.4838 88.6088 29.3139 86.6325C28.144 84.6562 27.4858 82.5122 27.4838 80.6715C27.4816 79.4534 27.7668 78.4222 28.3111 77.6813C28.8553 76.9404 29.6394 76.5159 30.5847 76.4502ZM46.115 102.562C47.0642 102.497 48.1423 102.795 49.2405 103.427C50.3387 104.059 51.418 105.003 52.3695 106.163C53.3209 107.324 54.1107 108.659 54.6592 110.034C55.2076 111.41 55.4952 112.777 55.4928 113.997C55.4938 114.91 55.3331 115.721 55.02 116.383C54.7068 117.045 54.2474 117.546 53.6679 117.856C53.0884 118.167 52.4002 118.281 51.6427 118.192C50.8852 118.104 50.0733 117.814 49.2532 117.34C48.4332 116.866 47.6213 116.217 46.8638 115.43C46.1063 114.643 45.4181 113.733 44.8386 112.752C44.2592 111.772 43.7997 110.74 43.4866 109.716C43.1735 108.692 43.0128 107.695 43.0138 106.784C43.0116 105.566 43.2968 104.534 43.8411 103.793C44.3853 103.053 45.1697 102.628 46.115 102.562Z" fill="#009440"/>
<path d="M61.2177 8.60748C59.505 8.60748 57.7921 8.99177 56.4654 9.76033L14.1052 34.2945C11.4513 35.8317 11.4513 38.2623 14.1052 39.7995L56.4654 64.3336C59.1193 65.8708 63.3158 65.8708 65.9694 64.3336L108.33 39.7995C110.983 38.2626 110.983 35.8317 108.33 34.2948L65.9694 9.76061C64.6425 8.99149 62.9301 8.60748 61.2177 8.60748ZM61.4745 31.6132C63.2155 31.6284 64.9104 31.9481 66.3474 32.5323C67.7845 33.1165 68.9 33.9393 69.5546 34.8979C70.2092 35.8565 70.3739 36.9085 70.0282 37.9224C69.6824 38.9363 68.8415 39.8672 67.6105 40.5988C66.7902 41.0941 65.8129 41.488 64.735 41.7577C63.6572 42.0275 62.5001 42.1678 61.3305 42.1706C60.161 42.1734 59.002 42.0386 57.9206 41.774C56.8391 41.5094 55.8565 41.1202 55.0295 40.6288C54.2025 40.1375 53.5473 39.5537 53.1019 38.9112C52.6564 38.2687 52.4295 37.5802 52.4341 36.8853C52.4388 36.1905 52.6749 35.503 53.1289 34.8626C53.5829 34.2222 54.2458 33.6416 55.0794 33.1542C55.9176 32.6563 56.9155 32.2633 58.0139 31.9986C59.1123 31.7339 60.289 31.6028 61.4742 31.6132H61.4745Z" fill="#FFCB00"/>
<path d="M77.0927 36.929C77.0927 42.7563 70.0157 47.4802 61.2859 47.4802C52.5561 47.4802 45.4791 42.7563 45.4791 36.929C45.4791 31.1018 52.5561 26.3779 61.2859 26.3779C70.0157 26.3779 77.0927 31.1018 77.0927 36.929Z" fill="#302681"/>
<path d="M457.738 90.5095C453.907 90.5095 451.045 89.4537 449.152 87.3422C447.258 85.1875 446.311 81.9986 446.311 77.7755V48.623C446.311 46.9855 446.72 45.7573 447.538 44.9385C448.398 44.0767 449.625 43.6458 451.217 43.6458C452.767 43.6458 453.95 44.0767 454.768 44.9385C455.629 45.7573 456.059 46.9855 456.059 48.623V77.3877C456.059 79.1545 456.425 80.4688 457.157 81.3307C457.931 82.1495 458.943 82.5588 460.191 82.5588C460.535 82.5588 460.858 82.5373 461.159 82.4942C461.461 82.4511 461.783 82.4296 462.128 82.4296C462.816 82.3434 463.29 82.5588 463.548 83.0759C463.849 83.55 464 84.5196 464 85.9847C464 87.2775 463.742 88.2687 463.225 88.9582C462.709 89.6046 461.913 90.0355 460.837 90.2509C460.406 90.294 459.911 90.3371 459.352 90.3802C458.792 90.4664 458.254 90.5095 457.738 90.5095Z" fill="#009440"/>
<path d="M433.943 90.3156C432.351 90.3156 431.124 89.8631 430.263 88.9582C429.446 88.0101 429.037 86.6958 429.037 85.0151V62.9084C429.037 61.1846 429.446 59.8703 430.263 58.9654C431.124 58.0173 432.351 57.5433 433.943 57.5433C435.492 57.5433 436.676 58.0173 437.494 58.9654C438.355 59.8703 438.785 61.1846 438.785 62.9084V85.0151C438.785 86.6958 438.376 88.0101 437.558 88.9582C436.741 89.8631 435.536 90.3156 433.943 90.3156ZM433.943 52.2428C432.135 52.2428 430.737 51.8334 429.747 51.0147C428.8 50.1528 428.327 48.9462 428.327 47.3949C428.327 45.8004 428.8 44.5938 429.747 43.775C430.737 42.9132 432.135 42.4822 433.943 42.4822C435.751 42.4822 437.128 42.9132 438.075 43.775C439.022 44.5938 439.495 45.8004 439.495 47.3949C439.495 48.9462 439.022 50.1528 438.075 51.0147C437.128 51.8334 435.751 52.2428 433.943 52.2428Z" fill="#009440"/>
<path d="M409.399 90.5095C407.505 90.5095 405.547 90.3371 403.524 89.9924C401.544 89.6476 399.737 89.0659 398.101 88.2471C397.241 87.8162 396.616 87.2775 396.229 86.6311C395.885 85.9416 395.734 85.2522 395.777 84.5627C395.82 83.8732 396.035 83.2483 396.423 82.6881C396.853 82.1279 397.391 81.7616 398.037 81.5892C398.725 81.3738 399.479 81.4384 400.296 81.7832C402.061 82.5157 403.675 83.0329 405.138 83.3345C406.601 83.6362 408.043 83.787 409.464 83.787C411.314 83.787 412.648 83.5069 413.466 82.9467C414.327 82.3434 414.757 81.5677 414.757 80.6196C414.757 79.7578 414.478 79.1114 413.918 78.6805C413.359 78.2495 412.541 77.9479 411.465 77.7755L404.686 76.5473C402.018 76.0733 399.952 75.1037 398.489 73.6386C397.068 72.1303 396.358 70.2127 396.358 67.8856C396.358 65.731 396.961 63.878 398.166 62.3266C399.371 60.7322 401.028 59.5256 403.137 58.7068C405.289 57.8449 407.72 57.414 410.432 57.414C412.369 57.414 414.155 57.5864 415.79 57.9311C417.426 58.2759 418.997 58.8361 420.503 59.6118C421.278 59.9996 421.816 60.5167 422.117 61.1631C422.461 61.8095 422.569 62.4774 422.44 63.1669C422.354 63.8564 422.095 64.4813 421.665 65.0415C421.235 65.6017 420.675 65.968 419.986 66.1404C419.341 66.3127 418.588 66.2265 417.727 65.8818C416.35 65.2354 415.08 64.7829 413.918 64.5244C412.756 64.2227 411.637 64.0719 410.561 64.0719C408.624 64.0719 407.226 64.3951 406.365 65.0415C405.504 65.6448 405.074 66.4205 405.074 67.3685C405.074 68.1011 405.31 68.7259 405.784 69.2431C406.3 69.7171 407.075 70.0403 408.108 70.2127L414.886 71.4408C417.684 71.9148 419.814 72.8629 421.278 74.285C422.741 75.6639 423.473 77.56 423.473 79.9732C423.473 83.2483 422.181 85.8339 419.599 87.73C417.06 89.583 413.66 90.5095 409.399 90.5095Z" fill="#009440"/>
<path d="M372.043 90.5095C369.719 90.5095 367.631 90.057 365.781 89.1521C363.93 88.2471 362.488 87.019 361.455 85.4676C360.422 83.9163 359.906 82.171 359.906 80.2318C359.906 77.9048 360.509 76.0733 361.714 74.7374C362.919 73.3585 364.877 72.3889 367.588 71.8286C370.3 71.2253 373.894 70.9237 378.37 70.9237H381.791V75.9656H378.434C376.239 75.9656 374.453 76.0949 373.076 76.3534C371.742 76.5689 370.773 76.9567 370.171 77.5169C369.611 78.0772 369.332 78.8528 369.332 79.844C369.332 81.0506 369.74 82.0417 370.558 82.8174C371.419 83.5931 372.645 83.9809 374.238 83.9809C375.486 83.9809 376.584 83.7008 377.53 83.1406C378.52 82.5373 379.295 81.7401 379.854 80.7489C380.414 79.7147 380.694 78.5512 380.694 77.2584V69.8248C380.694 67.9287 380.263 66.5928 379.403 65.8172C378.542 64.9984 377.078 64.589 375.013 64.589C373.851 64.589 372.581 64.7398 371.204 65.0415C369.869 65.3 368.385 65.7525 366.749 66.3989C365.802 66.8298 364.963 66.9376 364.231 66.7221C363.5 66.4636 362.94 66.0326 362.553 65.4293C362.166 64.7829 361.972 64.0934 361.972 63.3609C361.972 62.5852 362.187 61.8526 362.617 61.1631C363.048 60.4305 363.758 59.8919 364.748 59.5471C366.771 58.7283 368.664 58.1681 370.429 57.8665C372.237 57.5648 373.894 57.414 375.4 57.414C378.714 57.414 381.425 57.9096 383.534 58.9007C385.686 59.8488 387.3 61.3355 388.376 63.3609C389.452 65.3431 389.99 67.9072 389.99 71.053V85.403C389.99 86.9974 389.603 88.2256 388.828 89.0874C388.053 89.9493 386.934 90.3802 385.471 90.3802C384.008 90.3802 382.867 89.9493 382.049 89.0874C381.275 88.2256 380.887 86.9974 380.887 85.403V83.0113L381.339 83.3992C381.081 84.8643 380.522 86.1356 379.661 87.2129C378.843 88.2471 377.789 89.0659 376.497 89.6692C375.206 90.2294 373.721 90.5095 372.043 90.5095Z" fill="#009440"/>
<path d="M340.072 90.3802C338.437 90.3802 337.188 89.9493 336.328 89.0874C335.467 88.2256 335.036 86.9974 335.036 85.403V62.4559C335.036 60.8615 335.445 59.6549 336.263 58.8361C337.124 57.9742 338.307 57.5433 339.814 57.5433C341.363 57.5433 342.547 57.9742 343.364 58.8361C344.182 59.6549 344.591 60.8615 344.591 62.4559V65.8172H343.946C344.462 63.2316 345.603 61.2278 347.367 59.8057C349.132 58.3836 351.413 57.5864 354.21 57.414C355.286 57.3278 356.104 57.6079 356.663 58.2543C357.266 58.8576 357.589 59.8703 357.632 61.2924C357.718 62.6283 357.438 63.6841 356.793 64.4597C356.19 65.2354 355.157 65.7094 353.694 65.8818L352.209 66.0111C349.756 66.2266 347.927 66.9376 346.722 68.1442C345.559 69.3508 344.978 71.0961 344.978 73.38V85.403C344.978 86.9974 344.548 88.2256 343.687 89.0874C342.87 89.9493 341.664 90.3802 340.072 90.3802Z" fill="#009440"/>
<path d="M296.217 89.7985C294.538 89.7985 293.247 89.346 292.343 88.4411C291.44 87.5361 290.988 86.2433 290.988 84.5627V49.4634C290.988 47.7827 291.44 46.4899 292.343 45.585C293.247 44.68 294.538 44.2275 296.217 44.2275H311.84C315.068 44.2275 317.822 44.7016 320.103 45.6496C322.384 46.5977 324.106 47.9551 325.268 49.7219C326.473 51.4887 327.076 53.6003 327.076 56.0566C327.076 58.7715 326.301 61.0769 324.752 62.973C323.202 64.8691 321.072 66.1404 318.36 66.7868V65.7526C321.502 66.3128 323.934 67.5625 325.655 69.5016C327.42 71.3977 328.302 73.8756 328.302 76.9352C328.302 80.986 326.904 84.1533 324.106 86.4372C321.308 88.6781 317.457 89.7985 312.55 89.7985H296.217ZM300.542 82.3649H311.194C313.777 82.3649 315.67 81.8694 316.875 80.8782C318.081 79.844 318.683 78.3357 318.683 76.3535C318.683 74.3712 318.081 72.8845 316.875 71.8933C315.67 70.9022 313.777 70.4066 311.194 70.4066H300.542V82.3649ZM300.542 62.973H310.097C312.593 62.973 314.444 62.499 315.649 61.551C316.854 60.6029 317.457 59.1809 317.457 57.2848C317.457 55.4318 316.854 54.0312 315.649 53.0832C314.444 52.1351 312.593 51.6611 310.097 51.6611H300.542V62.973Z" fill="#009440"/>
<path d="M268.723 90.3156C265.796 90.3156 263.257 89.6476 261.105 88.3117C258.953 86.9759 257.275 85.1013 256.07 82.6881C254.908 80.2749 254.327 77.4092 254.327 74.091C254.327 71.6347 254.649 69.4154 255.295 67.4331C255.984 65.4508 256.952 63.7487 258.2 62.3266C259.491 60.8614 261.019 59.7626 262.784 59.03C264.591 58.2543 266.571 57.8665 268.723 57.8665C271.693 57.8665 274.254 58.5344 276.406 59.8703C278.557 61.2062 280.214 63.1023 281.377 65.5586C282.582 67.9718 283.184 70.8159 283.184 74.091C283.184 76.5904 282.84 78.8313 282.151 80.8135C281.506 82.7958 280.537 84.498 279.246 85.9201C277.998 87.3421 276.492 88.441 274.727 89.2167C272.962 89.9493 270.961 90.3156 268.723 90.3156ZM268.723 87.0189C270.875 87.0189 272.726 86.5234 274.275 85.5322C275.868 84.498 277.073 83.0113 277.89 81.0721C278.751 79.1329 279.182 76.8059 279.182 74.091C279.182 69.9972 278.235 66.8298 276.341 64.589C274.49 62.3481 271.951 61.2277 268.723 61.2277C266.614 61.2277 264.764 61.7448 263.171 62.7791C261.622 63.7702 260.417 65.2354 259.556 67.1746C258.738 69.0707 258.329 71.3761 258.329 74.091C258.329 78.2279 259.276 81.4168 261.17 83.6577C263.064 85.8985 265.581 87.0189 268.723 87.0189Z" fill="#454545"/>
<path d="M231.073 90.3156C228.276 90.3156 225.822 89.6692 223.713 88.3764C221.648 87.0405 220.034 85.166 218.872 82.7527C217.753 80.2964 217.193 77.4092 217.193 74.091C217.193 70.7729 217.753 67.9072 218.872 65.4939C219.991 63.0807 221.583 61.2062 223.649 59.8703C225.758 58.5344 228.233 57.8665 231.073 57.8665C234 57.8665 236.496 58.6206 238.562 60.1289C240.628 61.6371 242.005 63.6625 242.694 66.205H241.983V45.8435C241.983 45.154 242.156 44.6584 242.5 44.3568C242.844 44.012 243.318 43.8397 243.92 43.8397C244.566 43.8397 245.061 44.012 245.405 44.3568C245.749 44.6584 245.921 45.154 245.921 45.8435V88.1825C245.921 88.8289 245.749 89.3244 245.405 89.6692C245.061 90.0139 244.587 90.1863 243.985 90.1863C243.339 90.1863 242.844 90.0139 242.5 89.6692C242.156 89.3244 241.983 88.8289 241.983 88.1825V81.5246L242.694 81.9771C242.005 84.5196 240.628 86.5449 238.562 88.0532C236.496 89.5615 234 90.3156 231.073 90.3156ZM231.59 87.019C233.742 87.019 235.592 86.5234 237.142 85.5322C238.734 84.498 239.939 83.0113 240.757 81.0721C241.618 79.1329 242.048 76.8059 242.048 74.091C242.048 69.9972 241.101 66.8298 239.207 64.589C237.357 62.3482 234.817 61.2277 231.59 61.2277C229.481 61.2277 227.63 61.7448 226.038 62.7791C224.488 63.7702 223.283 65.2354 222.422 67.1746C221.605 69.0707 221.196 71.3762 221.196 74.091C221.196 78.228 222.143 81.4169 224.036 83.6577C225.93 85.8985 228.448 87.019 231.59 87.019Z" fill="#454545"/>
<path d="M194.486 90.3156C191.99 90.3156 189.902 89.8631 188.224 88.9582C186.588 88.0532 185.362 86.6958 184.544 84.8859C183.726 83.076 183.317 80.8351 183.317 78.1634V60.0643C183.317 59.3748 183.489 58.8577 183.834 58.5129C184.178 58.1682 184.673 57.9958 185.319 57.9958C185.921 57.9958 186.395 58.1682 186.739 58.5129C187.083 58.8577 187.255 59.3748 187.255 60.0643V77.9694C187.255 80.986 187.879 83.2484 189.127 84.7566C190.376 86.2218 192.334 86.9544 195.002 86.9544C197.929 86.9544 200.296 85.9848 202.104 84.0456C203.911 82.0633 204.815 79.4777 204.815 76.2888V60.0643C204.815 59.3748 204.987 58.8577 205.332 58.5129C205.676 58.1682 206.171 57.9958 206.816 57.9958C207.419 57.9958 207.892 58.1682 208.237 58.5129C208.581 58.8577 208.753 59.3748 208.753 60.0643V88.1825C208.753 89.5184 208.129 90.1863 206.881 90.1863C206.278 90.1863 205.805 90.014 205.461 89.6692C205.116 89.3245 204.944 88.8289 204.944 88.1825V81.7832L205.719 82.2357C204.901 84.8643 203.481 86.8682 201.458 88.2472C199.435 89.6261 197.111 90.3156 194.486 90.3156Z" fill="#454545"/>
<path d="M152.304 89.7985C151.702 89.7985 151.207 89.6261 150.819 89.2813C150.475 88.8935 150.303 88.3764 150.303 87.73V45.9728C150.303 45.2833 150.475 44.7662 150.819 44.4214C151.164 44.0767 151.637 43.9043 152.24 43.9043C152.885 43.9043 153.38 44.0767 153.724 44.4214C154.069 44.7662 154.241 45.2833 154.241 45.9728V86.2433H176.449C177.094 86.2433 177.568 86.3941 177.869 86.6958C178.213 86.9974 178.386 87.4283 178.386 87.9885C178.386 88.5919 178.213 89.0443 177.869 89.346C177.568 89.6476 177.094 89.7985 176.449 89.7985H152.304Z" fill="#454545"/>
</svg>
