<svg width="428" height="76" viewBox="0 0 428 76" fill="none" xmlns="http://www.w3.org/2000/svg">
<g clip-path="url(#clip0_33_167)">
<path d="M425.885 18.7822C423.503 16.109 419.144 15.4211 415.992 17.0102C415.07 17.4543 414.11 18.0073 413.168 18.3686C412.856 18.3556 412.575 17.9855 412.281 17.8505C409.786 16.2309 406.214 16.1743 403.672 17.5849C401.242 18.9172 398.742 20.145 396.316 21.4816C395.594 21.7515 394.976 22.3088 394.236 22.483C393.778 22.1913 393.436 21.6862 392.965 21.3815C390.383 19.3178 386.189 19.013 383.335 20.8242C383.24 20.8764 383.153 20.9025 383.071 20.8677C378.526 16.6184 371.681 15.0641 365.662 16.7882C360.87 18.0726 357.346 21.4903 353.385 24.2245C353.238 24.2637 353.031 24.625 352.927 24.3595C352.698 23.1491 352.226 21.9823 351.526 20.9896C349.152 17.5632 344.568 16.8666 340.698 16.7534C335.764 16.7316 331.323 18.4862 328.162 21.5425C328.136 21.56 328.08 21.5948 328.054 21.6122C327.989 21.634 327.937 21.5774 327.894 21.4772C326.657 18.4557 323.699 16.4312 320.249 16.466C319.431 16.4268 275.878 17.8244 275.078 17.807C275.073 17.807 275.056 17.807 275.008 17.807C274.965 17.807 274.892 17.8113 274.805 17.82C270.187 18.0769 267.052 21.8996 266.779 26.4449C266.295 30.0978 265.413 33.6853 265.179 37.3599C265.326 41.8356 269.132 44.683 273.395 44.1518C274.87 44.1083 277.568 44.0256 278.468 43.9995C278.662 43.9951 278.762 43.9908 278.775 43.9908C278.783 43.9908 278.775 44.0299 278.775 44.1083C278.775 44.2084 278.762 44.2955 278.758 44.4C278.641 46.3592 278.139 54.8666 277.88 59.2465C277.824 61.0141 277.698 61.6411 277.715 62.0634C277.581 64.8542 279.186 67.51 281.694 68.6246C284.193 69.8132 287.441 69.3343 289.451 67.5753C291.095 66.2213 292.738 64.8629 294.381 63.5132C294.506 63.4087 294.628 63.4218 294.749 63.5263C299.851 68.0063 307.466 68.5506 313.213 64.8585C313.862 64.5189 314.502 64.1663 315.15 63.8354C315.345 63.7919 315.47 63.9747 315.665 64.114C319.881 67.3184 324.815 68.8727 329.766 68.285C331.102 68.1239 332.404 67.7799 333.654 67.301C336.676 66.2169 339.703 65.1285 342.717 64.04C342.964 63.9573 343.193 63.8136 343.418 64.0139C343.958 64.4493 344.525 64.8498 345.113 65.2199C348.646 67.4316 352.966 68.3329 357.139 67.6711C359.802 67.1617 362.371 66.2866 364.996 65.6292C365.156 65.5987 365.307 65.7075 365.471 65.812C366.665 66.5565 368.018 66.9397 369.463 66.9266C370.539 66.9353 371.517 66.5783 372.542 66.3563C373.925 65.9862 375.344 65.6727 376.727 65.307C376.823 65.2983 376.9 65.3375 376.965 65.4158C377.878 66.8178 379.248 67.8148 380.827 68.2806C383.279 69.0861 385.813 68.0194 388.221 67.6319C389.315 67.9889 390.405 68.5462 391.62 68.5201C392.727 68.5941 393.726 68.2501 394.794 68.0934C397.012 67.6145 399.248 67.2488 401.462 66.7612C405.427 66.0123 409.393 65.233 413.349 64.4319C415.633 63.9442 417.994 63.7135 420.195 62.9385C423.139 61.7194 425.189 58.9461 425.449 55.6894C425.423 54.9536 427.991 25.5742 427.987 24.8384C428.13 22.5744 427.399 20.4236 425.933 18.8084L425.885 18.7561V18.7822Z" fill="#622F8F"/>
<path d="M320.21 22.4308C305.222 22.8792 290.234 23.3233 275.246 23.7717C271.995 23.8675 271.977 28.9702 275.246 28.8744C279.921 28.7351 284.595 28.5958 289.27 28.4564C288.725 37.6778 288.184 46.8991 287.64 56.1205C287.445 59.3989 292.513 59.3902 292.708 56.1205C293.253 46.8469 293.802 37.5777 294.347 28.3041C302.969 28.0472 311.587 27.7903 320.21 27.5334C323.462 27.4377 323.479 22.335 320.21 22.4308Z" fill="white"/>
<path d="M325.243 40.5207C323.28 34.5169 317.278 31.5432 311.31 32.4053C311.181 32.4183 311.047 32.4357 310.908 32.4662C310.761 32.4923 310.627 32.5272 310.502 32.5707C304.258 34.2426 300.085 40.4424 301.763 46.947C303.462 53.5256 310.428 57.5964 316.941 55.8592C323.384 54.1394 327.34 46.9252 325.243 40.5207ZM315.591 50.9394C311.825 51.9495 307.842 49.6202 306.735 45.8846C305.512 41.7616 308.366 38.2916 312.257 37.386C315.47 36.8287 319.012 38.457 320.262 41.5787C321.797 45.4057 319.522 49.8858 315.591 50.9394Z" fill="white"/>
<path d="M345.394 23.4973C339.591 21.5468 332.409 23.149 329.913 29.3227C327.583 35.0915 331.505 40.9082 337.468 41.4785C340.136 41.7354 343.656 40.6339 346.069 42.0837C348.062 43.281 348.733 46.1502 347.876 48.2444C345.213 54.7533 336.867 52.4414 332.707 49.2196C331.613 48.375 329.879 49.0585 329.239 50.1339C328.46 51.4401 329.07 52.7897 330.147 53.6257C335.046 57.4178 341.809 59.0331 347.44 55.8417C352.421 53.0161 354.786 46.9382 352.205 41.6353C350.99 39.1406 348.754 37.2728 346.047 36.6589C343.046 35.9797 339.816 37.0681 336.893 36.2453C333.965 35.4224 333.654 31.935 335.457 29.8321C337.637 27.2939 341.161 27.4506 344.045 28.4215C347.146 29.4664 348.473 24.5379 345.394 23.5017V23.4973Z" fill="white"/>
<path d="M378.526 49.2327C375.603 52.4632 370.838 52.5111 367.266 50.3298C363.271 47.883 361.411 43.1896 361.372 38.6268C361.333 34.2861 363.119 29.9801 367.154 27.9992C370.678 26.2707 376.005 27.1894 376.909 31.591C377.571 34.8042 382.457 33.4458 381.796 30.2327C380.472 23.8021 373.121 20.8502 367.27 22.5177C360.654 24.4029 356.767 30.6027 356.343 37.2728C355.911 44.056 358.821 51.1353 364.71 54.7359C370.142 58.0535 377.688 57.7269 382.111 52.842C384.304 50.4212 380.732 46.8032 378.526 49.2327Z" fill="white"/>
<path d="M409.639 37.6646C409.83 33.4371 410.02 29.2095 410.206 24.982C410.353 21.6992 405.285 21.7079 405.138 24.982C404.982 28.4259 404.831 31.8741 404.675 35.3179C400.187 36.0494 395.698 36.7808 391.214 37.5123C390.954 34.3514 390.691 31.1905 390.431 28.0253C390.163 24.7774 385.095 24.7469 385.363 28.0253C386.059 36.4673 386.755 44.9094 387.447 53.347C387.715 56.595 392.783 56.6255 392.515 53.347C392.221 49.7595 391.923 46.1676 391.629 42.5801C395.901 41.8835 400.174 41.1869 404.442 40.4946C404.221 45.4275 404.001 50.3647 403.78 55.2975C403.633 58.5803 408.701 58.5716 408.848 55.2975C409.103 49.6202 409.358 43.9428 409.613 38.2655C409.648 38.0695 409.652 37.8693 409.639 37.6646Z" fill="white"/>
<path d="M264.955 61.6455C266.118 58.8155 268.077 56.1945 268.163 53.0293C268.237 47.2039 263.316 43.6382 257.854 44.7832C256.345 44.953 253.188 45.297 251.774 45.4581C251.727 45.4058 251.753 45.3405 251.757 45.2055C252.194 38.0174 252.004 30.8772 251.191 23.8719C250.974 21.7995 249.997 19.8055 248.479 18.4166C244.981 14.9901 238.235 15.3994 235.58 19.7706C235.394 20.071 235.191 19.7401 234.988 19.6182C227.541 13.9278 217.176 16.7665 211.931 24.5424C211.723 24.8515 211.663 24.5076 211.524 24.2942C210.569 22.5179 209.773 20.563 208.134 19.3048C203.979 15.7869 196.891 17.4196 194.976 22.5832C194.829 22.9141 194.712 23.4278 194.591 23.7413C194.439 23.7892 194.344 23.5367 194.223 23.4017C191.201 19.0566 186.284 16.6577 180.087 16.6489C174.989 16.7143 169.614 18.1118 168.036 23.4931C167.348 23.0882 166.738 22.3481 166.09 21.843C163.158 18.9913 158.743 17.2977 153.839 17.3368C149.731 17.4326 145.121 18.2424 142.808 21.9301C142.782 21.9475 142.73 21.978 142.709 21.9954C142.579 22.0215 142.41 21.8387 142.25 21.7516C142.086 21.6471 141.926 21.5383 141.774 21.4251C140.248 20.4106 138.925 19.283 137.152 18.5907C131.984 16.588 125.528 17.6329 121.68 21.5775C120.581 22.6311 119.73 23.898 118.951 25.1781C118.925 25.1868 118.873 25.2042 118.843 25.2129C118.117 24.8733 117.308 24.3857 116.577 24.0069C114.281 22.7922 112.011 21.5339 109.71 20.3236C106.528 18.4253 103.086 17.0756 99.1764 17.1279C88.7074 17.2149 79.6914 25.744 77.4515 35.8928C74.3769 48.201 83.2719 62.1767 95.8597 64.1011C99.5959 64.8717 103.336 65.6336 107.077 66.3868C111.336 67.2532 115.591 68.1544 119.859 68.9773C123.509 69.5433 127.383 68.8859 130.666 67.1792C131.457 67.1008 132.265 67.5319 133.065 67.6276C134.652 68.0238 136.248 68.4026 137.844 68.7683C140.702 69.7523 144.136 68.7117 145.96 66.3433C146.017 66.291 146.077 66.2605 146.146 66.2605C146.466 66.3084 146.812 66.4478 147.141 66.5174C149.805 67.2793 152.473 68.0369 155.141 68.777C157.16 69.4911 159.525 69.2647 161.324 68.1457C161.419 68.0891 161.515 68.0587 161.614 68.063C167.729 70.2094 175.011 70.0309 180.602 66.6611C180.74 66.5697 180.879 66.5522 181.026 66.6219C183.279 67.4404 185.367 68.8249 187.771 69.0121C190.331 69.1776 192.744 67.9455 194.154 65.8992C194.383 65.8077 194.582 66.0385 194.807 66.1256C196.139 66.844 197.471 67.558 198.807 68.2764C201.03 69.5694 204.026 69.5172 206.232 68.1283C206.344 68.0848 206.465 68.0891 206.573 68.1675C209.968 70.4184 215.083 69.1515 216.809 65.4551C217.003 65.0937 217.189 65.5509 217.444 65.712C223.624 71.1324 231.018 69.5564 237.12 64.9022C238.547 67.1487 240.851 68.6987 243.606 68.4592C244.146 68.4113 244.518 68.3634 245.128 68.2981C248.03 67.9759 255.117 67.1966 257.729 66.9093C261.162 66.7873 263.727 64.863 264.929 61.6978L264.955 61.6412V61.6455Z" fill="#622F8F"/>
<path d="M141.195 37.2773C140.196 32.2269 139.439 24.5729 133.243 23.6847C130.471 23.2885 127.773 23.8632 125.745 25.9095C123.526 28.1473 122.748 31.3996 121.948 34.3472C121.498 36.0147 121.083 37.6909 120.698 39.3758C114.7 39.4498 108.703 39.5238 102.705 39.5979C99.4445 39.637 99.4359 44.7397 102.705 44.7005C104.954 44.6744 107.207 44.6439 109.455 44.6178C108.504 49.0151 105.23 52.7725 100.482 53.2427C96.2187 53.6693 91.9679 51.4881 89.7366 47.857C86.7313 42.9764 87.4361 36.6721 91.155 32.3662C94.5149 28.4782 102.982 25.5002 105.55 32.0222C106.735 35.0394 111.639 33.7246 110.437 30.6682C107.981 24.4248 101.096 21.6297 94.8565 23.8284C88.6253 26.027 83.994 31.8742 82.9908 38.418C81.2222 50.0034 91.7777 61.2275 103.561 57.8142C109.667 56.0422 113.702 50.6478 114.614 44.5525C116.287 44.5307 117.961 44.5133 119.634 44.4915C118.917 48.2837 118.354 52.1107 117.935 55.9551C117.576 59.2117 122.644 59.1856 122.999 55.9551C123.427 52.0889 124.023 48.2402 124.789 44.4262C128.944 44.3783 133.104 44.3261 137.26 44.2738C137.813 48.1531 138.142 52.0672 138.224 55.9899C138.289 59.2683 143.357 59.2771 143.292 55.9899C143.163 49.7204 142.414 43.4248 141.195 37.2773ZM125.918 39.3105C125.922 39.2757 125.93 39.2452 125.939 39.2104C126.683 36.1366 127.846 26.6409 133.044 28.8265C134.657 29.5057 134.899 32.5795 135.288 34.1208C135.708 35.797 136.088 37.4863 136.412 39.1842C132.914 39.2278 129.416 39.267 125.918 39.3105Z" fill="white"/>
<path d="M169.8 44.6264C168.567 40.917 165.519 38.6922 161.982 37.7039C163.85 35.6315 164.84 33.0018 164.01 29.6755C162.47 23.4844 154.475 22.2958 149.333 24.0112C149.13 24.0808 148.948 24.1636 148.784 24.2637C148.023 24.6207 147.452 25.3565 147.474 26.4711C147.673 36.2149 147.867 45.9587 148.066 55.7025C148.079 56.4514 148.36 57.0261 148.775 57.4353C149.074 57.8228 149.523 58.1189 150.15 58.2495C154.764 59.2073 160.031 58.9809 164.273 56.7387C168.49 54.5096 171.391 49.4025 169.804 44.6351L169.8 44.6264ZM159.115 31.0208C159.958 34.6083 155.932 36.5719 152.762 37.6952C152.702 34.6301 152.637 31.5694 152.576 28.5043C155.145 28.1473 158.514 28.4651 159.115 31.0208ZM160.784 52.7376C158.371 53.6344 155.664 53.8696 153.087 53.5735C153.017 50.0556 152.944 46.5377 152.875 43.0242C153.441 42.8327 154.021 42.6237 154.604 42.3929C158.137 41.5178 162.985 42.3276 164.753 45.68C166.349 48.6972 163.43 51.758 160.784 52.7419V52.7376Z" fill="white"/>
<path d="M191.049 40.9473C189.864 39.7239 188.485 38.827 186.993 38.2044C189.622 35.9796 191.252 32.9842 190.258 28.9831C188.718 22.792 180.723 21.6034 175.581 23.3188C175.391 23.3841 175.218 23.4625 175.058 23.5539C174.28 23.9065 173.692 24.6467 173.722 25.7787C173.964 35.7837 174.202 45.7888 174.444 55.7938C174.522 59.0722 179.59 59.0853 179.512 55.7938C179.404 51.3224 179.296 46.8511 179.188 42.3797C182.34 41.792 185.769 42.4363 187.901 45.0312C190.383 48.0571 191.391 52.1714 191.326 56.0246C191.27 59.3073 196.338 59.3073 196.394 56.0246C196.485 50.7042 194.82 44.8353 191.053 40.9473H191.049ZM185.367 30.3284C186.206 33.8985 182.219 35.8621 179.058 36.9854C178.984 33.9247 178.911 30.8683 178.837 27.8076C181.406 27.4505 184.766 27.7684 185.367 30.3241V30.3284Z" fill="white"/>
<path d="M200.273 25.8353C200.45 35.9274 200.627 46.0239 200.805 56.116C200.861 59.3944 205.929 59.4075 205.873 56.116C205.695 46.0239 205.518 35.9274 205.341 25.8353C205.284 22.5569 200.216 22.5438 200.273 25.8353Z" fill="white"/>
<path d="M232.544 46.3288C230.482 48.6363 228.298 51.2617 225.392 52.5156C223.226 53.4516 220.151 53.6345 218.508 51.6187C216.705 49.4026 216.947 45.8717 217.129 43.2071C217.176 42.5192 217.25 41.8183 217.336 41.1173C219.425 40.8779 221.5 40.5208 223.55 40.0463C226.715 39.3105 230.343 38.4092 232.687 35.9755C237.669 30.8032 233.076 22.7747 226.486 22.5788C218.884 22.3568 214.72 29.8105 213.133 36.2715C213.129 36.2933 213.12 36.3194 213.116 36.3412C212.484 36.3673 211.849 36.3891 211.213 36.3978C207.953 36.437 207.944 41.5396 211.213 41.5005C211.524 41.5005 211.836 41.4874 212.147 41.4787C211.429 47.1038 211.892 53.4429 216.571 56.6343C223.792 61.5584 231.442 55.1801 236.134 49.9381C238.313 47.5043 234.737 43.8863 232.549 46.3288H232.544ZM219.494 33.1673C220.696 30.568 222.793 27.9166 225.864 27.6902C227.866 27.5422 230.646 29.423 229.569 31.7349C228.497 34.0467 224.346 34.6258 222.201 35.1265C220.964 35.4138 219.719 35.6446 218.469 35.8318C218.759 34.9175 219.096 34.0206 219.49 33.1673H219.494Z" fill="white"/>
<path d="M240.242 24.49C241.409 34.4166 241.314 44.4826 239.809 54.3658C239.589 55.8156 240.441 57.7966 242.252 57.5963C248.116 56.9476 253.975 56.3032 259.839 55.6545C263.048 55.3018 263.082 50.1948 259.839 50.5518C253.975 51.2005 248.116 51.8449 242.252 52.4936C243.065 53.569 243.883 54.6444 244.696 55.7241C246.274 45.3664 246.533 34.9043 245.31 24.4943C244.933 21.2725 239.861 21.2333 240.242 24.4943V24.49Z" fill="white"/>
<path d="M419.555 55.2322C420.398 45.0051 421.237 34.7824 422.08 24.5553C422.348 21.2812 417.28 21.303 417.012 24.5553C416.169 34.7824 415.33 45.0051 414.487 55.2322C414.219 58.5063 419.287 58.4845 419.555 55.2322Z" fill="white"/>
<path d="M38.8619 34.5953C37.1971 34.0902 35.5322 33.5678 33.8804 33.0235C32.6436 32.6186 32.1118 34.5778 33.3442 34.9827C35.0004 35.527 36.6609 36.0494 38.3257 36.5545C39.5711 36.9332 40.103 34.974 38.8619 34.5953Z" fill="#622F8F"/>
<path d="M26.2999 33.0237C24.6438 33.5679 22.9832 34.0904 21.3184 34.5954C20.0774 34.9698 20.6049 36.9334 21.8546 36.5546C23.5195 36.0496 25.1843 35.5271 26.8361 34.9829C28.0642 34.5823 27.541 32.6188 26.2999 33.0237Z" fill="#622F8F"/>
<path d="M60.8982 19.0305C60.3274 16.5271 58.1869 14.446 55.7307 13.8103C55.1253 13.6536 54.4767 13.5752 53.854 13.6013C53.7762 13.6013 53.4994 13.597 53.4043 13.6361C53.4043 13.6361 53.3956 13.6361 53.3913 13.6361C53.3913 13.3706 53.3048 13.0092 53.2745 12.8176C53.0583 11.5202 52.2584 10.4143 51.2335 9.635C48.786 7.76287 45.8023 8.19389 43.0996 9.16479C42.7018 4.11438 38.2738 0.182893 33.2144 0.00874132C28.2415 -0.165411 23.9908 3.03028 22.019 7.41456C19.8093 5.11575 15.5845 5.54243 12.791 6.89646C9.67759 8.40723 7.25169 11.3156 6.29171 14.6549C4.7004 14.3894 3.00529 14.9075 1.80748 16.0177C0.159946 17.5502 -0.103832 20.0711 0.0302193 22.2001C0.155622 24.1506 0.76534 26.1054 2.53395 27.1329C2.69395 27.2244 2.9707 27.2897 3.09178 27.4334C3.28205 27.6641 3.21718 28.0342 3.22151 28.3302C3.22583 29.0007 3.22583 29.6756 3.23015 30.346C3.23448 31.8002 3.24313 33.2587 3.24745 34.7129C3.25178 36.0191 5.27119 36.0234 5.26255 34.7129C5.25822 33.4808 5.24957 32.2487 5.24525 31.0165C5.24092 29.841 5.34038 28.6045 5.20201 27.4334C5.08958 26.4668 4.5577 25.9226 3.74474 25.4741C3.01394 25.0736 2.57719 24.5729 2.32206 23.7587C1.82478 22.1652 1.80316 19.9405 2.52098 18.4166C3.28205 16.8057 5.17174 16.2571 6.75441 16.8841C7.2344 17.0757 7.90033 16.6707 7.99546 16.1744C8.57059 13.2225 10.3824 10.6407 12.9554 9.09948C15.2472 7.72804 20.2417 6.50897 21.2579 10.0747C21.5303 11.0239 22.9487 11.0587 23.2038 10.0747C24.3757 5.57726 28.1724 1.98101 32.942 2.0202C37.5646 2.05938 41.4521 5.89508 41.0802 10.6364C41.0153 11.4897 41.9667 11.7901 42.598 11.5115C44.9547 10.484 48.1028 9.48697 50.2735 11.4418C50.6584 11.7901 50.9827 12.2081 51.1686 12.6957C51.3762 13.24 51.2724 13.8147 51.4238 14.3632C51.8259 15.8218 53.1578 15.5649 54.3167 15.6171C56.5134 15.7173 58.5501 17.511 58.9782 19.6705C59.4798 22.2218 57.7804 24.6077 56.0377 26.2578C55.0864 27.1591 53.5037 27.8818 53.0973 29.2097C52.8594 29.989 52.894 30.8772 52.8421 31.687C52.7729 32.6927 52.7081 33.6985 52.6389 34.7042C52.5524 36.0103 54.5675 36.0016 54.654 34.7042C54.7145 33.8117 54.7751 32.9191 54.8356 32.0223C54.8875 31.2603 54.7318 30.0674 55.2723 29.4883C55.7221 29.0094 56.3707 28.6568 56.868 28.2257C57.4388 27.7338 57.9793 27.207 58.4766 26.6366C60.2841 24.5511 61.5382 21.8257 60.8939 19.0174L60.8982 19.0305Z" fill="#622F8F"/>
<path d="M9.18037 46.5987C10.1014 45.6757 8.67444 44.239 7.75337 45.162C6.78042 46.1372 5.29721 46.0893 4.24209 45.2578C3.16536 44.4044 2.6378 42.9198 2.91023 41.5744C3.16536 40.3206 4.22047 39.2887 5.51774 39.2321C6.77609 39.1755 7.80094 40.2465 7.76634 41.4917C7.73175 42.8066 9.71225 42.7892 9.78144 41.4917C10.0322 36.8245 10.2831 32.1528 10.5339 27.4855C10.603 26.1794 8.58795 26.1838 8.51876 27.4855C8.33282 30.9773 8.14255 34.4647 7.95661 37.9564C7.32095 37.5124 6.55988 37.2381 5.75125 37.2076C3.58481 37.1292 1.60863 38.7184 1.02918 40.7864C0.410818 42.9851 1.23242 45.4493 3.00968 46.8556C4.85181 48.3098 7.48527 48.3011 9.17605 46.6074L9.18037 46.5987Z" fill="#622F8F"/>
<path d="M54.2431 45.2577C53.1923 46.0937 51.7048 46.1372 50.7318 45.1619C49.8108 44.2389 48.3838 45.6757 49.3048 46.5987C50.9956 48.2923 53.6334 48.3054 55.4712 46.8469C57.2398 45.4493 58.083 42.972 57.4517 40.7777C56.8593 38.7096 54.9091 37.1248 52.7296 37.1988C51.921 37.225 51.1599 37.5036 50.5243 37.9477C50.3383 34.4603 50.1481 30.9685 49.9621 27.4811C49.8929 26.1794 47.8735 26.175 47.947 27.4811C48.1978 32.1484 48.4486 36.8201 48.6994 41.4873C48.7686 42.7848 50.7491 42.8022 50.7145 41.4873C50.6843 40.2465 51.7048 39.1711 52.9631 39.2277C54.2604 39.2843 55.3155 40.3162 55.5707 41.5701C55.8431 42.9154 55.3155 44.4 54.2388 45.2534L54.2431 45.2577Z" fill="#622F8F"/>
<path d="M35.4155 24.5685C34.6718 26.0662 33.0891 26.5756 31.5756 25.9922C30.7151 25.6613 29.8978 25.2259 28.9422 25.3043C28.0557 25.3739 27.3292 25.8746 26.7454 26.5233C25.526 27.8817 24.4017 29.0224 22.5077 29.3011C20.6699 29.571 18.8537 28.857 17.5651 27.5465C16.6484 26.6148 15.2257 28.0515 16.1381 28.9832C19.2083 32.1049 24.3844 32.1702 27.3854 28.8875C27.9562 28.2605 28.4795 27.1895 29.4611 27.3549C30.5248 27.5378 31.4027 28.217 32.514 28.291C34.4123 28.4172 36.3063 27.2983 37.1539 25.596C37.7333 24.4292 35.9907 23.4017 35.4112 24.5728L35.4155 24.5685Z" fill="#622F8F"/>
<path d="M26.0189 37.521C24.073 37.521 24.0687 40.5687 26.0189 40.5687C27.9691 40.5687 27.9691 37.521 26.0189 37.521Z" fill="#622F8F"/>
<path d="M33.5128 37.521C31.5669 37.521 31.5626 40.5687 33.5128 40.5687C35.463 40.5687 35.463 37.521 33.5128 37.521Z" fill="#622F8F"/>
<path d="M55.0562 49.3329C54.079 48.4839 52.6476 49.912 53.6292 50.7697C55.4584 52.3632 56.2281 55.0887 55.2379 57.37C54.2736 59.5905 51.692 61.0055 49.318 60.6397C48.0596 60.4482 47.4888 62.3551 48.7818 62.599C50.2217 62.8689 51.0563 64.2665 50.8834 65.6989C50.6974 67.2749 49.5472 68.6333 48.2153 69.3996C45.8889 70.7362 42.7105 70.5447 40.6652 68.7639C39.9647 68.1588 39.0393 68.5985 38.9441 69.4823C38.6371 72.3732 35.4458 74.0712 32.808 73.9667C29.4308 73.8318 26.5725 71.2238 24.6569 68.642C24.259 68.1065 23.5931 67.9585 23.0742 68.4374C21.1542 70.2051 18.1229 70.6927 15.7965 69.4475C13.4182 68.1762 12.1512 65.4899 12.4409 62.8341C12.5144 62.1592 11.7404 61.7021 11.1652 61.8545C8.60096 62.5293 6.95775 59.8125 7.06153 57.566C7.19126 54.7099 9.18473 52.3936 10.9404 50.3299C11.7793 49.3416 10.3609 47.9005 9.51338 48.8932C7.16964 51.6448 4.63996 54.8274 5.08536 58.698C5.40535 61.4757 7.62801 63.9312 10.3825 63.9704C10.4863 66.9963 12.2679 69.9743 14.9922 71.3066C17.7856 72.6693 21.1153 72.3254 23.619 70.5708C26.0147 73.5009 29.3357 76.0958 33.2534 75.9956C36.4015 75.9172 39.4587 74.0538 40.5614 71.1368C43.4543 72.7869 47.2596 72.6954 49.9796 70.6535C51.7006 69.3604 53.0455 67.2488 52.9028 65.0153C52.8422 64.0836 52.5222 63.178 51.9947 62.4248C54.1222 61.8719 56.0076 60.4656 56.9762 58.3932C58.3945 55.3542 57.5729 51.5229 55.0519 49.3329H55.0562Z" fill="#622F8F"/>
<path d="M29.6426 47.87C28.3842 47.5522 27.8437 49.5114 29.1064 49.8292C30.9701 50.2994 33.6511 50.356 34.1917 47.9614C34.6673 45.8673 32.916 43.7818 31.7225 42.2841C30.9096 41.2653 29.4912 42.7107 30.2955 43.7208C31.0263 44.6395 31.8782 45.6539 32.1593 46.8251C32.5571 48.4926 30.6415 48.1182 29.6426 47.87Z" fill="#622F8F"/>
<path d="M25.4481 57.701C28.5442 60.0085 33.0847 59.9432 36.1852 57.6923C37.2273 56.9348 36.2241 55.1715 35.169 55.9377C32.6869 57.7446 29.1972 57.9057 26.6632 56.0901C24.3065 54.4008 23.2384 51.2008 23.9346 48.41C24.2503 47.1431 22.3044 46.6032 21.9887 47.8701C21.0806 51.5012 22.4514 55.4675 25.4481 57.7054V57.701Z" fill="#622F8F"/>
</g>
<defs>
<clipPath id="clip0_33_167">
<rect width="428" height="76" fill="white"/>
</clipPath>
</defs>
</svg>
